<svg id="Layer_1" data-name="Layer 1" xmlns="http://www.w3.org/2000/svg" viewBox="0 0 51.5 51.5"><defs><style>.cls-1{fill:#6b6e70;}.cls-2{fill:#222629;fill-rule:evenodd;}</style><radialGradient id="radial-gradient" cx="18.41" cy="14.88" r="43.44" gradientTransform="matrix(1, 0, 0, -1, 0, 62)" gradientUnits="userSpaceOnUse"><stop offset="0" stop-color="#ffb140"/><stop offset="0.26" stop-color="#ff5445"/><stop offset="0.6" stop-color="#fc2b82"/><stop offset="1" stop-color="#8e40b7"/></radialGradient></defs><circle class="cls-1" cx="25.75" cy="25.75" r="25.75"/><g id="_7_stroke" data-name="7 stroke"><g id="Instagram"><path id="Instagram-2" data-name="Instagram" class="cls-2" d="M41.45,20.93a2,2,0,1,1-2-2A2,2,0,0,1,41.45,20.93ZM30.33,35.67A5.67,5.67,0,1,1,36,30,5.66,5.66,0,0,1,30.33,35.67Zm0-14.4A8.73,8.73,0,1,0,39.06,30,8.73,8.73,0,0,0,30.33,21.27Zm0-5.21c4.54,0,5.08,0,6.87.1a9.32,9.32,0,0,1,3.16.59A5.69,5.69,0,0,1,43.59,20a9.39,9.39,0,0,1,.58,3.16c.08,1.79.1,2.33.1,6.87s0,5.08-.1,6.87A9.39,9.39,0,0,1,43.59,40a5.69,5.69,0,0,1-3.23,3.22,9.32,9.32,0,0,1-3.16.59c-1.79.08-2.33.1-6.87.1s-5.07,0-6.87-.1a9.3,9.3,0,0,1-3.15-.59,5.23,5.23,0,0,1-2-1.27A5.32,5.32,0,0,1,17.08,40a9.39,9.39,0,0,1-.58-3.16c-.09-1.79-.1-2.33-.1-6.87s0-5.08.1-6.87A9.39,9.39,0,0,1,17.08,20,5.32,5.32,0,0,1,18.35,18a5.23,5.23,0,0,1,2-1.27,9.56,9.56,0,0,1,3.15-.59C25.26,16.08,25.79,16.06,30.33,16.06Zm0-3.06c-4.61,0-5.19,0-7,.1a12.37,12.37,0,0,0-4.12.79,8.41,8.41,0,0,0-3,2,8.31,8.31,0,0,0-2,3A12.49,12.49,0,0,0,13.44,23c-.09,1.81-.11,2.39-.11,7s0,5.2.11,7a12.49,12.49,0,0,0,.79,4.13,8.31,8.31,0,0,0,2,3,8.41,8.41,0,0,0,3,2,12.37,12.37,0,0,0,4.12.79c1.82.08,2.4.1,7,.1s5.2,0,7-.1a12.43,12.43,0,0,0,4.13-.79,8.49,8.49,0,0,0,3-2,8.31,8.31,0,0,0,2-3A12.49,12.49,0,0,0,47.23,37c.08-1.81.1-2.39.1-7s0-5.2-.1-7a12.49,12.49,0,0,0-.79-4.13,8.31,8.31,0,0,0-2-3,8.49,8.49,0,0,0-3-2,12.43,12.43,0,0,0-4.13-.79C35.53,13,35,13,30.33,13Z" transform="translate(-4.44 -4.44)"/></g></g></svg>