<svg id="Layer_1" data-name="Layer 1" xmlns="http://www.w3.org/2000/svg" viewBox="0 0 60 60"><defs><style>.cls-1{fill:#6b6e70;}.cls-2{fill:#222629;}</style></defs><path class="cls-1" d="M30,4A26,26,0,1,0,56,30,26,26,0,0,0,30,4Z" transform="translate(-4 -4)"/><path class="cls-2" d="M11.28,19.85A4.67,4.67,0,0,1,16,15.17H44a4.68,4.68,0,0,1,4.68,4.68V38.57A4.69,4.69,0,0,1,44,43.25H16a4.68,4.68,0,0,1-4.68-4.68Zm3.51,0v1.61L27.4,31.82a4.1,4.1,0,0,0,5.2,0L45.21,21.46V19.78A1.21,1.21,0,0,0,44,18.61H16a1.21,1.21,0,0,0-1.17,1.17Zm0,6.16V38.57A1.17,1.17,0,0,0,16,39.74H44a1.17,1.17,0,0,0,1.17-1.17V26L34.83,34.53a7.68,7.68,0,0,1-9.72,0Z" transform="translate(-4 -4)"/></svg>